# xmcd CD database file
#
# Track frame offsets:
#	150
#	37100
#	83070
#	123234
#	151006
#	186650
#	227280
#	264632
#	304174
#
# Disc length: 4539 seconds
#
# Revision: 0
# Processed by: cddbd v1.5.2PL0 Copyright (c) Steve Scherf et al.
# Submitted via: CDex 1.51
#
DISCID=6c11b909
DTITLE=Keith Jarrett - Yesterdays
DYEAR=2009
DGENRE=Jazz
TTITLE0=Strollin
TTITLE1=You Took Advantage Of Me
TTITLE2=Yesterdays
TTITLE3=Shaw' Nuff
TTITLE4=You've Changed
TTITLE5=Scrapple From The Apple
TTITLE6=A Sleepin' Bee
TTITLE7=Smoke Gets In Your Eyes
TTITLE8=Stella By Starlight
EXTD=YEAR: 2009
EXTT0=
EXTT1=
EXTT2=
EXTT3=
EXTT4=
EXTT5=
EXTT6=
EXTT7=
EXTT8=
PLAYORDER=
